<svg width="300" height="300" viewBox="0 0 300 300" fill="none" xmlns="http://www.w3.org/2000/svg">
<g clip-path="url(#clip0)">
<path d="M114.235 217.594L83.9071 247.923L95.9887 273.627L86.1444 283.471L41.3978 183.438L49.7505 175.085L149.834 219.782L140.039 229.577L114.235 217.594ZM78.9352 237.184L103.546 212.573L57.3574 191.045L78.9352 237.184ZM148.64 156.441C138.1 162.274 129.25 165.357 122.091 165.688C114.931 165.954 108.833 163.567 103.794 158.529C98.0934 152.828 95.6572 145.851 96.4859 137.597C97.3145 129.278 101.375 121.472 108.667 114.18C113.639 109.208 119.025 105.745 124.825 103.789C130.659 101.8 136.327 101.436 141.829 102.695C147.364 103.922 152.137 106.54 156.148 110.551L146.552 120.146C142.177 115.771 137.354 113.733 132.084 114.031C126.781 114.296 121.594 116.964 116.522 122.036C111.816 126.742 109.181 131.466 108.617 136.205C108.054 140.879 109.612 145.055 113.291 148.734C116.241 151.684 119.986 152.944 124.527 152.513C129.068 152.016 135.183 149.613 142.873 145.304C150.596 140.962 157.175 138.128 162.611 136.802C168.047 135.41 172.936 135.261 177.278 136.355C181.654 137.415 185.681 139.785 189.36 143.464C195.227 149.331 197.646 156.325 196.619 164.445C195.558 172.533 191.199 180.405 183.543 188.062C178.571 193.034 172.986 196.729 166.788 199.149C160.556 201.535 154.607 202.248 148.939 201.287C143.304 200.292 138.382 197.691 134.172 193.481L143.768 183.885C148.143 188.261 153.215 190.117 158.982 189.454C164.749 188.725 170.334 185.659 175.737 180.256C180.775 175.218 183.609 170.329 184.239 165.589C184.869 160.849 183.41 156.706 179.864 153.159C176.317 149.613 172.34 148.121 167.931 148.685C163.49 149.215 157.059 151.8 148.64 156.441ZM275.671 93.9447L266.075 103.54L232.615 70.0798L196.122 106.573L229.582 140.034L220.036 149.58L147.646 77.1896L157.192 67.6436L188.316 98.7674L224.809 62.274L193.685 31.1503L203.281 21.5546L275.671 93.9447Z" fill="#EA0D0D"/>
</g>
<defs>
<clipPath id="clip0">
<rect width="300" height="300" fill="white"/>
</clipPath>
</defs>
</svg>
